<svg width="1440" height="765" viewBox="0 0 1440 765" fill="none" xmlns="http://www.w3.org/2000/svg">
<g clip-path="url(#clip0_46_185)">
<rect width="1440" height="765" fill="white"/>
<path d="M42.344 52V48.616H38.96V45.232H35.576V41.848H32.192V38.464H28.808V52H22.04V18.16H28.808V31.696H32.192V28.312H35.576V24.928H38.96V21.544H42.344V18.16H49.112V24.928H45.728V28.312H42.344V31.696H38.96V38.464H42.344V41.848H45.728V45.232H49.112V52H42.344Z" fill="black"/>
<path d="M99 85V743" stroke="black" stroke-width="1.71032"/>
<path d="M1343 86V743.5" stroke="black" stroke-width="1.71032"/>
<path d="M1343 367L99 367" stroke="black" stroke-width="1.71032"/>
<path d="M1440 85H0.000488281" stroke="black" stroke-width="1.71032"/>
<path d="M1343 169L99 169" stroke="black" stroke-width="1.71032"/>
<rect x="99" y="201" width="1244" height="133" fill="#8F8F8F"/>
<path d="M1343 648L99 648" stroke="black" stroke-width="1.71032"/>
<path d="M1440 743H0.000488281" stroke="black" stroke-width="1.71032"/>
<rect x="496" y="146" width="447" height="532" fill="#D9D9D9"/>
<path d="M1394.26 63.464V56.768H1411.04V50H1390.81V46.616H1387.42V43.232H1384.04V16.088H1390.81V39.848H1394.19V43.232H1411.26V16.088H1417.81V63.464H1394.26Z" fill="black"/>
<path d="M34.904 710.568V707.328H38.144V704.016H58.592L58.52 734.616H61.904V748.728H55.136V738H28.208V748.728H21.44V734.616H24.824V731.232H28.208V724.464H31.592V710.568H34.904ZM41.456 713.88H38.36V727.848H34.976V731.232H51.752V710.784H41.456V713.88Z" fill="black"/>
<path d="M748.467 399.422V406.733H741.156V414.044H729.333V422.6H714.711V399.267H733.844V392.111H741.156V371.578H733.844V364.267H704.6V371.578H697.289V378.733H682.667V364.267H689.978V356.956H697.289V349.644H741.156V356.956H748.467V364.267H755.778V399.422H748.467ZM714.4 452V436.756H729.178V452H714.4Z" fill="black"/>
<rect x="326" y="32" width="165" height="39" fill="#D9D9D9"/>
<rect x="128" y="551" width="320" height="51" fill="#D9D9D9"/>
<rect x="983" y="551" width="320" height="51" fill="#D9D9D9"/>
<rect x="736" y="32" width="165" height="39" fill="#D9D9D9"/>
<rect x="539" y="32" width="165" height="39" fill="#D9D9D9"/>
<rect x="949" y="32" width="165" height="39" fill="#D9D9D9"/>
<path d="M1390.37 739V735.544H1386.98V732.16H1383.6V725.464H1386.98V722.08H1390.37V718.696H1410.67V715.24H1407.29V711.784H1390.37V705.088H1410.67V708.472H1414.06V711.856H1417.44V739H1390.37ZM1410.67 725.464H1393.75V732.16H1410.67V725.464Z" fill="black"/>
</g>
<defs>
<clipPath id="clip0_46_185">
<rect width="1440" height="765" fill="white"/>
</clipPath>
</defs>
</svg>
